<svg xmlns="http://www.w3.org/2000/svg" viewBox="0 0 64.77 25.68"><defs><style>.cls-1{fill:#243487;}.cls-2{fill:#009ee2;}</style></defs><title>Asset 17</title><g id="Layer_2" data-name="Layer 2"><g id="Layer_1-2" data-name="Layer 1"><path class="cls-1" d="M14,1.06A4.78,4.78,0,0,0,10.58,0H4.52A4.78,4.78,0,0,0,1.08,1.06,4.5,4.5,0,0,0,0,4.26V15.34H2.83V12.27h7.75A4.78,4.78,0,0,0,14,11.21,4.83,4.83,0,0,0,15.1,7.68V4.59A4.83,4.83,0,0,0,14,1.06ZM12.27,7.79c0,1-.41,1.51-1.33,1.51H2.83V4.48c0-1,.41-1.51,1.33-1.51h6.77c.92,0,1.33.46,1.33,1.51ZM30.16,1.06A4.77,4.77,0,0,0,26.73,0H18.64V3h8.44c.92,0,1.33.46,1.33,1.51v.86H20.66A4.77,4.77,0,0,0,17.23,6.4a4.82,4.82,0,0,0-1.08,3.52v.83a4.82,4.82,0,0,0,1.08,3.52,4.77,4.77,0,0,0,3.43,1.06h6.07a4.78,4.78,0,0,0,3.43-1.06,4.49,4.49,0,0,0,1.08-3.2V4.91C31.24,3,30.88,1.77,30.16,1.06Zm-1.75,9.8c0,1-.41,1.51-1.33,1.51H20.31c-.92,0-1.33-.46-1.33-1.51v-1c0-1,.41-1.51,1.33-1.51h8.1ZM47.89,0V10.47a5.74,5.74,0,0,1-1.08,3.85,4.78,4.78,0,0,1-3.43,1.06H35.29v-3h8.44c.93,0,1.33-.46,1.33-1.51V10H37.31A4.78,4.78,0,0,1,33.87,9a4.82,4.82,0,0,1-1.08-3.52V0h2.83V5.56c0,1,.41,1.51,1.33,1.51h8.11V0Z"/><path class="cls-2" d="M64.77,0V10.75a4.82,4.82,0,0,1-1.08,3.52,4.78,4.78,0,0,1-3.43,1.06H54.19a4.77,4.77,0,0,1-3.43-1.06,4.82,4.82,0,0,1-1.08-3.52V0h2.83V10.86c0,1,.41,1.51,1.33,1.51h6.77c.92,0,1.33-.46,1.33-1.51V0Z"/><path class="cls-2" d="M42.88,16.62l1.47,2a18.21,18.21,0,0,1-26.49-2H15a20.5,20.5,0,0,0,34,0Z"/></g></g></svg>