<svg xmlns="http://www.w3.org/2000/svg" viewBox="0 0 63.23 16.19"><defs><style>.cls-1{fill:#2a2a89;}.cls-2{fill:#0f8047;}.cls-3{fill:#f0721d;}</style></defs><title>Asset 26</title><g id="Layer_2" data-name="Layer 2"><g id="Layer_1-2" data-name="Layer 1"><path class="cls-1" d="M34.07,4.25c.28-2.14-1.43-3-3.58-3H24.85L21.53,12.74h3.58l1-3.55L29,9.2S33.39,9.38,34.07,4.25ZM30.38,5.39a1.7,1.7,0,0,1-1.75,1.09H26.88L27.57,4h1.84A.94.94,0,0,1,30.38,5.39Z"/><path class="cls-1" d="M13.61,4.36h3.27L15.53,9.28s-.34,1.1.74,1.18c.85.07,1.49-.9,1.69-1.56.27-.86,1.33-4.54,1.33-4.54h3.36l-2.56,8.37H17.18l.36-1.2a4.75,4.75,0,0,1-3.72,1.53c-2-.18-2.15-1.55-1.81-3.25C12.17,9,13.61,4.36,13.61,4.36Z"/><path class="cls-1" d="M42,8.61c.43-1.39,1-2.71.54-3.44C41.87,4,40.66,3.95,38.89,3.95c-2,0-4.38.35-5.16,2.83H37a1.43,1.43,0,0,1,1.52-.87c1.08.05,1,.76.62,1.15-.7.69-2.63.31-4.77,1A3.4,3.4,0,0,0,32.24,12c.39.9,1.13,1,2.12,1.11a4.59,4.59,0,0,0,3.37-1.19c0,.55,0,.86,0,.86h3.43v-.31a.42.42,0,0,1-.27-.49C40.92,11.64,41.51,10.21,42,8.61ZM37.08,11c-.56.14-1.24.21-1.37-.27C35.33,9.43,38.59,9,38.59,9A2.17,2.17,0,0,1,37.08,11Z"/><path class="cls-1" d="M12.8,3.9C13.09,1.75,11.1,1.21,9,1.21H3.33L0,12.74H3.58L4.7,8.82l2,0s.83,0,.85.69-.62,2.24-.57,3.2h3.68v-.31a.42.42,0,0,1-.27-.49,11.7,11.7,0,0,1,.47-1.43,4.23,4.23,0,0,0,.37-1.69c0-.77-.54-1.13-1.27-1.38C12.23,6.93,12.8,3.9,12.8,3.9ZM9,5.37c-.46,1-1.9.9-1.9.9H5.43L6,4.1H8.27C9.06,4.11,9.3,4.71,9,5.37Z"/><path class="cls-1" d="M43.56,4.36h3.33v5l2.88-5h3.05L46.66,14.52a5.25,5.25,0,0,1-1.28,1.3,3,3,0,0,1-1.52.37H41.18l.71-2.42H43a1.29,1.29,0,0,0,.73-.3,1.17,1.17,0,0,0,.29-.81C44.05,12.13,43.56,4.36,43.56,4.36Z"/><polygon class="cls-2" points="57.08 2.43 53.24 15.13 60.43 8.78 57.08 2.43"/><polygon class="cls-3" points="54.62 2.43 50.78 15.13 57.97 8.78 54.62 2.43"/><path d="M61.77,2.77a1.42,1.42,0,0,1-1.45-1.38,1.46,1.46,0,0,1,2.91,0A1.42,1.42,0,0,1,61.77,2.77Zm0-2.64a1.29,1.29,0,0,0-1.32,1.26,1.33,1.33,0,0,0,2.65,0A1.29,1.29,0,0,0,61.77.12Z"/><path d="M61.06,1.9V1h-.34V.92h.82V1H61.2V1.9Z"/><path d="M61.75,1.9v-1H62l.24.69,0,.15.05-.16.25-.68h.18v1H62.6V1.08l-.3.82h-.12l-.3-.84V1.9Z"/></g></g></svg>